<svg width="18" height="17" viewBox="0 0 18 17" fill="none" xmlns="http://www.w3.org/2000/svg">
<path fill-rule="evenodd" clip-rule="evenodd" d="M2.72067 8.55148L0.464355 4.64343L3.10023 0.0992779L8.35351 0.088623L10.6098 3.99667L14.8184 3.9985L17.4206 8.5058L14.7697 13.0239L10.5762 13.048L8.45854 16.6677L3.22028 16.7044L0.617987 12.1971L2.72067 8.55148ZM13.8976 11.5126L15.6699 8.50924L13.925 5.48685L10.4378 5.52009L8.8532 8.24133L10.7486 11.5243L13.8976 11.5126ZM7.58635 15.1564L9.17095 12.4351L7.27554 9.15219L4.12659 9.16387L2.35421 12.1672L4.09919 15.1896L7.58635 15.1564ZM7.43262 7.60254L9.20499 4.59919L7.46002 1.5768L3.97285 1.61005L2.20048 4.6134L3.94546 7.63578L7.43262 7.60254Z" fill="#1A202C"/>
</svg>
