<svg width="27" height="27" viewBox="0 0 27 27" fill="none" xmlns="http://www.w3.org/2000/svg">
<path fill-rule="evenodd" clip-rule="evenodd" d="M9.55363 0.275879C9.09481 0.275879 8.72287 0.647826 8.72287 1.10665V8.99895H8.72283C3.90521 8.99895 -0.000244141 12.9044 -0.000244141 17.722C-0.000244141 22.5396 3.90521 26.4451 8.72283 26.4451H16.6151C17.074 26.4451 17.4459 26.0731 17.4459 25.6143V17.722H17.4459C22.2636 17.722 26.169 13.8166 26.169 8.99895C26.169 4.18133 22.2636 0.275879 17.4459 0.275879H9.55363ZM17.4459 17.722V9.82971C17.4459 9.37089 17.074 8.99895 16.6151 8.99895H8.72287V16.8913C8.72287 17.3501 9.09481 17.722 9.55363 17.722H17.4459Z" fill="#CB3CFF"/>
<path d="M9.46006 0.275879C9.05294 0.275879 8.7229 0.605917 8.7229 1.01304L8.7229 8.99895H16.7088C17.1159 8.99895 17.446 9.32899 17.446 9.73611L17.446 17.722C22.2636 17.722 26.1691 13.8166 26.1691 8.99895C26.1691 4.18133 22.2636 0.275879 17.446 0.275879H9.46006Z" fill="#00C2FF"/>
</svg>
